<svg id="SvgjsSvg1006" width="1008.5" height="671" xmlns="http://www.w3.org/2000/svg" version="1.1" xmlns:xlink="http://www.w3.org/1999/xlink" xmlns:svgjs="http://svgjs.com/svgjs"><defs id="SvgjsDefs1007"><marker id="SvgjsMarker1036" markerWidth="16" markerHeight="12" refX="16" refY="6" viewBox="0 0 16 12" orient="auto" markerUnits="userSpaceOnUse" stroke-dasharray="0,0"><path id="SvgjsPath1037" d="M0,2 L14,6 L0,11 L0,2" fill="#323232" stroke="#323232" stroke-width="2"></path></marker><marker id="SvgjsMarker1046" markerWidth="16" markerHeight="12" refX="16" refY="6" viewBox="0 0 16 12" orient="auto" markerUnits="userSpaceOnUse" stroke-dasharray="0,0"><path id="SvgjsPath1047" d="M0,2 L14,6 L0,11 L0,2" fill="#323232" stroke="#323232" stroke-width="2"></path></marker><marker id="SvgjsMarker1064" markerWidth="16" markerHeight="12" refX="16" refY="6" viewBox="0 0 16 12" orient="auto" markerUnits="userSpaceOnUse" stroke-dasharray="0,0"><path id="SvgjsPath1065" d="M0,2 L14,6 L0,11 L0,2" fill="#323232" stroke="#323232" stroke-width="2"></path></marker><marker id="SvgjsMarker1082" markerWidth="16" markerHeight="12" refX="16" refY="6" viewBox="0 0 16 12" orient="auto" markerUnits="userSpaceOnUse" stroke-dasharray="0,0"><path id="SvgjsPath1083" d="M0,2 L14,6 L0,11 L0,2" fill="#323232" stroke="#323232" stroke-width="2"></path></marker><marker id="SvgjsMarker1092" markerWidth="16" markerHeight="12" refX="16" refY="6" viewBox="0 0 16 12" orient="auto" markerUnits="userSpaceOnUse" stroke-dasharray="0,0"><path id="SvgjsPath1093" d="M0,2 L14,6 L0,11 L0,2" fill="#323232" stroke="#323232" stroke-width="2"></path></marker><marker id="SvgjsMarker1108" markerWidth="16" markerHeight="12" refX="16" refY="6" viewBox="0 0 16 12" orient="auto" markerUnits="userSpaceOnUse" stroke-dasharray="0,0"><path id="SvgjsPath1109" d="M0,2 L14,6 L0,11 L0,2" fill="#323232" stroke="#323232" stroke-width="2"></path></marker><marker id="SvgjsMarker1126" markerWidth="16" markerHeight="12" refX="16" refY="6" viewBox="0 0 16 12" orient="auto" markerUnits="userSpaceOnUse" stroke-dasharray="0,0"><path id="SvgjsPath1127" d="M0,2 L14,6 L0,11 L0,2" fill="#323232" stroke="#323232" stroke-width="2"></path></marker><marker id="SvgjsMarker1136" markerWidth="16" markerHeight="12" refX="16" refY="6" viewBox="0 0 16 12" orient="auto" markerUnits="userSpaceOnUse" stroke-dasharray="0,0"><path id="SvgjsPath1137" d="M0,2 L14,6 L0,11 L0,2" fill="#323232" stroke="#323232" stroke-width="2"></path></marker><marker id="SvgjsMarker1152" markerWidth="16" markerHeight="12" refX="16" refY="6" viewBox="0 0 16 12" orient="auto" markerUnits="userSpaceOnUse" stroke-dasharray="0,0"><path id="SvgjsPath1153" d="M0,2 L14,6 L0,11 L0,2" fill="#323232" stroke="#323232" stroke-width="2"></path></marker></defs><g id="SvgjsG1008" transform="translate(146,137)"><path id="SvgjsPath1009" d="M 0 4Q 0 0 4 0L 750 0Q 754 0 754 4L 754 281Q 754 285 750 285L 4 285Q 0 285 0 281Z" stroke-dasharray="10,6" stroke="rgba(102,178,255,1)" stroke-width="2" fill-opacity="1" fill="#ffffff"></path><g id="SvgjsG1010"><text id="SvgjsText1011" font-family="微软雅黑" text-anchor="middle" font-size="13px" width="734px" fill="#323232" font-weight="400" align="middle" lineHeight="125%" anchor="middle" family="微软雅黑" size="13px" weight="400" font-style="" opacity="1" y="132.875" transform="rotate(0)"></text></g></g><g id="SvgjsG1012" transform="translate(146,505)"><path id="SvgjsPath1013" d="M 0 4Q 0 0 4 0L 750 0Q 754 0 754 4L 754 137Q 754 141 750 141L 4 141Q 0 141 0 137Z" stroke-dasharray="10,6" stroke="rgba(255,179,102,1)" stroke-width="2" fill-opacity="1" fill="#ffffff"></path><g id="SvgjsG1014"><text id="SvgjsText1015" font-family="微软雅黑" text-anchor="middle" font-size="13px" width="734px" fill="#323232" font-weight="400" align="middle" lineHeight="125%" anchor="middle" family="微软雅黑" size="13px" weight="400" font-style="" opacity="1" y="60.875" transform="rotate(0)"></text></g></g><g id="SvgjsG1016" transform="translate(276,25)"><path id="SvgjsPath1017" d="M 0 4Q 0 0 4 0L 123 0Q 127 0 127 4L 127 72Q 127 76 123 76L 4 76Q 0 76 0 72Z" stroke="rgba(50,50,50,1)" stroke-width="2" fill-opacity="1" fill="#cce5ff"></path><g id="SvgjsG1018"><text id="SvgjsText1019" font-family="Tahoma" text-anchor="middle" font-size="13px" width="107px" fill="#323232" font-weight="400" align="middle" lineHeight="125%" anchor="middle" family="Tahoma" size="13px" weight="400" font-style="" opacity="1" y="28.375" transform="rotate(0)"><tspan id="SvgjsTspan1020" dy="16" x="63.5"><tspan id="SvgjsTspan1021" style="text-decoration:;">publish-exchange</tspan></tspan></text></g></g><g id="SvgjsG1022" transform="translate(530,33.5)"><path id="SvgjsPath1023" d="M 0 4Q 0 0 4 0L 145 0Q 149 0 149 4L 149 55Q 149 59 145 59L 4 59Q 0 59 0 55Z" stroke="rgba(50,50,50,1)" stroke-width="2" fill-opacity="1" fill="#e6ffcc"></path><g id="SvgjsG1024"><text id="SvgjsText1025" font-family="Tahoma" text-anchor="middle" font-size="13px" width="129px" fill="#323232" font-weight="400" align="middle" lineHeight="125%" anchor="middle" family="Tahoma" size="13px" weight="400" font-style="" opacity="1" y="19.875" transform="rotate(0)"><tspan id="SvgjsTspan1026" dy="16" x="74.5"><tspan id="SvgjsTspan1027" style="text-decoration:;">subscriber-queue</tspan></tspan></text></g></g><g id="SvgjsG1028" transform="translate(25,25)"><path id="SvgjsPath1029" d="M 0 4Q 0 0 4 0L 123 0Q 127 0 127 4L 127 72Q 127 76 123 76L 4 76Q 0 76 0 72Z" stroke="rgba(50,50,50,1)" stroke-width="2" fill-opacity="1" fill="#ffe6cc"></path><g id="SvgjsG1030"><text id="SvgjsText1031" font-family="Tahoma" text-anchor="middle" font-size="13px" width="107px" fill="#323232" font-weight="400" align="middle" lineHeight="125%" anchor="middle" family="Tahoma" size="13px" weight="400" font-style="" opacity="1" y="28.375" transform="rotate(0)"><tspan id="SvgjsTspan1032" dy="16" x="63.5"><tspan id="SvgjsTspan1033" style="text-decoration:;">event-publisher</tspan></tspan></text></g></g><g id="SvgjsG1034"><path id="SvgjsPath1035" d="M152 63L214 63L214 63L276 63" stroke="#323232" stroke-width="2" fill="none" marker-end="url(#SvgjsMarker1036)"></path><rect id="SvgjsRect1038" width="71" height="32" x="178.5" y="47" fill="#ffffff"></rect><text id="SvgjsText1039" font-family="Tahoma" text-anchor="middle" font-size="13px" width="71px" fill="#323232" font-weight="400" align="top" lineHeight="16px" anchor="middle" family="Tahoma" size="13px" weight="400" font-style="" opacity="1" y="45.375" transform="rotate(0)"><tspan id="SvgjsTspan1040" dy="16" x="214"><tspan id="SvgjsTspan1041" style="text-decoration:;">topic</tspan></tspan><tspan id="SvgjsTspan1042" dy="16" x="214"><tspan id="SvgjsTspan1043" style="text-decoration:;">(event type)</tspan></tspan></text></g><g id="SvgjsG1044"><path id="SvgjsPath1045" d="M403 63L466.5 63L466.5 63L530 63" stroke="#323232" stroke-width="2" fill="none" marker-end="url(#SvgjsMarker1046)"></path><rect id="SvgjsRect1048" width="71" height="32" x="431" y="47" fill="#ffffff"></rect><text id="SvgjsText1049" font-family="Tahoma" text-anchor="middle" font-size="13px" width="71px" fill="#323232" font-weight="400" align="top" lineHeight="16px" anchor="middle" family="Tahoma" size="13px" weight="400" font-style="" opacity="1" y="45.375" transform="rotate(0)"><tspan id="SvgjsTspan1050" dy="16" x="466.5"><tspan id="SvgjsTspan1051" style="text-decoration:;">binding</tspan></tspan><tspan id="SvgjsTspan1052" dy="16" x="466.5"><tspan id="SvgjsTspan1053" style="text-decoration:;">(event type)</tspan></tspan></text></g><g id="SvgjsG1054" transform="translate(541,322)"><path id="SvgjsPath1055" d="M 0 4Q 0 0 4 0L 123 0Q 127 0 127 4L 127 72Q 127 76 123 76L 4 76Q 0 76 0 72Z" stroke="rgba(50,50,50,1)" stroke-width="2" fill-opacity="1" fill="#cce5ff"></path><g id="SvgjsG1056"><text id="SvgjsText1057" font-family="Tahoma" text-anchor="middle" font-size="13px" width="107px" fill="#323232" font-weight="400" align="middle" lineHeight="125%" anchor="middle" family="Tahoma" size="13px" weight="400" font-style="" opacity="1" y="20.375" transform="rotate(0)"><tspan id="SvgjsTspan1058" dy="16" x="63.5"><tspan id="SvgjsTspan1059" style="text-decoration:;">dead-letter</tspan></tspan><tspan id="SvgjsTspan1060" dy="16" x="63.5"><tspan id="SvgjsTspan1061" style="text-decoration:;">exchange</tspan></tspan></text></g></g><g id="SvgjsG1062"><path id="SvgjsPath1063" d="M836.5 101L836.5 360L668 360" stroke="#323232" stroke-width="2" fill="none" marker-end="url(#SvgjsMarker1064)"></path><rect id="SvgjsRect1066" width="101" height="32" x="786" y="298.74999999999994" fill="#ffffff"></rect><text id="SvgjsText1067" font-family="Tahoma" text-anchor="middle" font-size="13px" width="101px" fill="#323232" font-weight="400" align="top" lineHeight="16px" anchor="middle" family="Tahoma" size="13px" weight="400" font-style="" opacity="1" y="297.12499999999994" transform="rotate(0)"><tspan id="SvgjsTspan1068" dy="16" x="836.5"><tspan id="SvgjsTspan1069" style="text-decoration:;">failed</tspan></tspan><tspan id="SvgjsTspan1070" dy="16" x="836.5"><tspan id="SvgjsTspan1071" style="text-decoration:;">(topic:subscriber)</tspan></tspan></text></g><g id="SvgjsG1072" transform="translate(265,330.5)"><path id="SvgjsPath1073" d="M 0 4Q 0 0 4 0L 145 0Q 149 0 149 4L 149 55Q 149 59 145 59L 4 59Q 0 59 0 55Z" stroke="rgba(50,50,50,1)" stroke-width="2" fill-opacity="1" fill="#e6ffcc"></path><g id="SvgjsG1074"><text id="SvgjsText1075" font-family="Tahoma" text-anchor="middle" font-size="13px" width="129px" fill="#323232" font-weight="400" align="middle" lineHeight="125%" anchor="middle" family="Tahoma" size="13px" weight="400" font-style="" opacity="1" y="11.875" transform="rotate(0)"><tspan id="SvgjsTspan1076" dy="16" x="74.5"><tspan id="SvgjsTspan1077" style="text-decoration:;">dead-letter-queue</tspan></tspan><tspan id="SvgjsTspan1078" dy="16" x="74.5"><tspan id="SvgjsTspan1079" style="text-decoration:;">(ttl)</tspan></tspan></text></g></g><g id="SvgjsG1080"><path id="SvgjsPath1081" d="M541 360L477.5 360L477.5 360L414 360" stroke="#323232" stroke-width="2" fill="none" marker-end="url(#SvgjsMarker1082)"></path><rect id="SvgjsRect1084" width="42" height="32" x="456.5" y="344" fill="#ffffff"></rect><text id="SvgjsText1085" font-family="Tahoma" text-anchor="middle" font-size="13px" width="42px" fill="#323232" font-weight="400" align="top" lineHeight="16px" anchor="middle" family="Tahoma" size="13px" weight="400" font-style="" opacity="1" y="342.375" transform="rotate(0)"><tspan id="SvgjsTspan1086" dy="16" x="477.5"><tspan id="SvgjsTspan1087" style="text-decoration:;">binding</tspan></tspan><tspan id="SvgjsTspan1088" dy="16" x="477.5"><tspan id="SvgjsTspan1089" style="text-decoration:;">(all)</tspan></tspan></text></g><g id="SvgjsG1090"><path id="SvgjsPath1091" d="M339.5 330.5L339.5 289.25L339.5 289.25L339.5 248" stroke="#323232" stroke-width="2" fill="none" marker-end="url(#SvgjsMarker1092)"></path><rect id="SvgjsRect1094" width="68" height="32" x="305.5" y="273.25" fill="#ffffff"></rect><text id="SvgjsText1095" font-family="Tahoma" text-anchor="middle" font-size="13px" width="68px" fill="#323232" font-weight="400" align="top" lineHeight="16px" anchor="middle" family="Tahoma" size="13px" weight="400" font-style="" opacity="1" y="271.625" transform="rotate(0)"><tspan id="SvgjsTspan1096" dy="16" x="339.5"><tspan id="SvgjsTspan1097" style="text-decoration:;">topic</tspan></tspan><tspan id="SvgjsTspan1098" dy="16" x="339.5"><tspan id="SvgjsTspan1099" style="text-decoration:;">(subscriber)</tspan></tspan></text></g><g id="SvgjsG1100" transform="translate(773,25)"><path id="SvgjsPath1101" d="M 0 4Q 0 0 4 0L 123 0Q 127 0 127 4L 127 72Q 127 76 123 76L 4 76Q 0 76 0 72Z" stroke="rgba(50,50,50,1)" stroke-width="2" fill-opacity="1" fill="#ffe6cc"></path><g id="SvgjsG1102"><text id="SvgjsText1103" font-family="Tahoma" text-anchor="middle" font-size="13px" width="107px" fill="#323232" font-weight="400" align="middle" lineHeight="125%" anchor="middle" family="Tahoma" size="13px" weight="400" font-style="" opacity="1" y="28.375" transform="rotate(0)"><tspan id="SvgjsTspan1104" dy="16" x="63.5"><tspan id="SvgjsTspan1105" style="text-decoration:;">event-subscriber</tspan></tspan></text></g></g><g id="SvgjsG1106"><path id="SvgjsPath1107" d="M679 63L726 63L726 63L773 63" stroke="#323232" stroke-width="2" fill="none" marker-end="url(#SvgjsMarker1108)"></path></g><g id="SvgjsG1110" transform="translate(265,552.5)"><path id="SvgjsPath1111" d="M 0 4Q 0 0 4 0L 145 0Q 149 0 149 4L 149 55Q 149 59 145 59L 4 59Q 0 59 0 55Z" stroke="rgba(50,50,50,1)" stroke-width="2" fill-opacity="1" fill="#e6ffcc"></path><g id="SvgjsG1112"><text id="SvgjsText1113" font-family="Tahoma" text-anchor="middle" font-size="13px" width="129px" fill="#323232" font-weight="400" align="middle" lineHeight="125%" anchor="middle" family="Tahoma" size="13px" weight="400" font-style="" opacity="1" y="19.875" transform="rotate(0)"><tspan id="SvgjsTspan1114" dy="16" x="74.5"><tspan id="SvgjsTspan1115" style="text-decoration:;">parking-lot-queue</tspan></tspan></text></g></g><g id="SvgjsG1116" transform="translate(541,544)"><path id="SvgjsPath1117" d="M 0 4Q 0 0 4 0L 123 0Q 127 0 127 4L 127 72Q 127 76 123 76L 4 76Q 0 76 0 72Z" stroke="rgba(50,50,50,1)" stroke-width="2" fill-opacity="1" fill="#cce5ff"></path><g id="SvgjsG1118"><text id="SvgjsText1119" font-family="Tahoma" text-anchor="middle" font-size="13px" width="107px" fill="#323232" font-weight="400" align="middle" lineHeight="125%" anchor="middle" family="Tahoma" size="13px" weight="400" font-style="" opacity="1" y="20.375" transform="rotate(0)"><tspan id="SvgjsTspan1120" dy="16" x="63.5"><tspan id="SvgjsTspan1121" style="text-decoration:;">parking-lot</tspan></tspan><tspan id="SvgjsTspan1122" dy="16" x="63.5"><tspan id="SvgjsTspan1123" style="text-decoration:;">exchange</tspan></tspan></text></g></g><g id="SvgjsG1124"><path id="SvgjsPath1125" d="M900 63L930 63L930 582L668 582" stroke="#323232" stroke-width="2" fill="none" marker-end="url(#SvgjsMarker1126)"></path><rect id="SvgjsRect1128" width="127" height="32" x="866.5" y="422.5" fill="#ffffff"></rect><text id="SvgjsText1129" font-family="Tahoma" text-anchor="middle" font-size="13px" width="127px" fill="#323232" font-weight="400" align="top" lineHeight="16px" anchor="middle" family="Tahoma" size="13px" weight="400" font-style="" opacity="1" y="420.875" transform="rotate(0)"><tspan id="SvgjsTspan1130" dy="16" x="930"><tspan id="SvgjsTspan1131" style="text-decoration:;">max retries exhausted</tspan></tspan><tspan id="SvgjsTspan1132" dy="16" x="930"><tspan id="SvgjsTspan1133" style="text-decoration:;">(topic:subscriber)</tspan></tspan></text></g><g id="SvgjsG1134"><path id="SvgjsPath1135" d="M541 582L477.5 582L477.5 582L414 582" stroke="#323232" stroke-width="2" fill="none" marker-end="url(#SvgjsMarker1136)"></path><rect id="SvgjsRect1138" width="68" height="32" x="443.5" y="566" fill="#ffffff"></rect><text id="SvgjsText1139" font-family="Tahoma" text-anchor="middle" font-size="13px" width="68px" fill="#323232" font-weight="400" align="top" lineHeight="16px" anchor="middle" family="Tahoma" size="13px" weight="400" font-style="" opacity="1" y="564.375" transform="rotate(0)"><tspan id="SvgjsTspan1140" dy="16" x="477.5"><tspan id="SvgjsTspan1141" style="text-decoration:;">binding</tspan></tspan><tspan id="SvgjsTspan1142" dy="16" x="477.5"><tspan id="SvgjsTspan1143" style="text-decoration:;">(subscriber)</tspan></tspan></text></g><g id="SvgjsG1144" transform="translate(276,172)"><path id="SvgjsPath1145" d="M 0 4Q 0 0 4 0L 123 0Q 127 0 127 4L 127 72Q 127 76 123 76L 4 76Q 0 76 0 72Z" stroke="rgba(50,50,50,1)" stroke-width="2" fill-opacity="1" fill="#cce5ff"></path><g id="SvgjsG1146"><text id="SvgjsText1147" font-family="Tahoma" text-anchor="middle" font-size="13px" width="107px" fill="#323232" font-weight="400" align="middle" lineHeight="125%" anchor="middle" family="Tahoma" size="13px" weight="400" font-style="" opacity="1" y="28.375" transform="rotate(0)"><tspan id="SvgjsTspan1148" dy="16" x="63.5"><tspan id="SvgjsTspan1149" style="text-decoration:;">retry-exchange</tspan></tspan></text></g></g><g id="SvgjsG1150"><path id="SvgjsPath1151" d="M403 210L604.5 210L604.5 92.5" stroke="#323232" stroke-width="2" fill="none" marker-end="url(#SvgjsMarker1152)"></path><rect id="SvgjsRect1154" width="114" height="16" x="505.5" y="202" fill="#ffffff"></rect><text id="SvgjsText1155" font-family="Tahoma" text-anchor="middle" font-size="13px" width="114px" fill="#323232" font-weight="400" align="top" lineHeight="16px" anchor="middle" family="Tahoma" size="13px" weight="400" font-style="" opacity="1" y="200.375" transform="rotate(0)"><tspan id="SvgjsTspan1156" dy="16" x="562.5"><tspan id="SvgjsTspan1157" style="text-decoration:;">binding (subscriber)</tspan></tspan></text></g><g id="SvgjsG1158" transform="translate(146,555.5)"><path id="SvgjsPath1159" d="M 0 0L 120 0L 120 40L 0 40Z" stroke="none" fill="none"></path><g id="SvgjsG1160"><text id="SvgjsText1161" font-family="微软雅黑" text-anchor="middle" font-size="13px" width="120px" fill="#323232" font-weight="700" align="middle" lineHeight="125%" anchor="middle" family="微软雅黑" size="13px" weight="700" font-style="" opacity="1" y="2.375" transform="rotate(0)"><tspan id="SvgjsTspan1162" dy="16" x="60"><tspan id="SvgjsTspan1163" style="text-decoration:;">Parking</tspan></tspan><tspan id="SvgjsTspan1164" dy="16" x="60"><tspan id="SvgjsTspan1165" style="text-decoration:;">(Optional)</tspan></tspan></text></g></g><g id="SvgjsG1166" transform="translate(146,259.5)"><path id="SvgjsPath1167" d="M 0 0L 120 0L 120 40L 0 40Z" stroke="none" fill="none"></path><g id="SvgjsG1168"><text id="SvgjsText1169" font-family="Tahoma" text-anchor="middle" font-size="13px" width="120px" fill="#323232" font-weight="700" align="middle" lineHeight="125%" anchor="middle" family="Tahoma" size="13px" weight="700" font-style="" opacity="1" y="2.375" transform="rotate(0)"><tspan id="SvgjsTspan1170" dy="16" x="60"><tspan id="SvgjsTspan1171" style="text-decoration:;">Retry</tspan></tspan><tspan id="SvgjsTspan1172" dy="16" x="60"><tspan id="SvgjsTspan1173" style="text-decoration:;">(Optional)</tspan></tspan></text></g></g></svg>